<?xml version="1.0" encoding="utf-8"?>
<!-- Generator: Adobe Illustrator 22.0.0, SVG Export Plug-In . SVG Version: 6.00 Build 0)  -->
<svg version="1.1" xmlns="http://www.w3.org/2000/svg" xmlns:xlink="http://www.w3.org/1999/xlink" x="0px" y="0px"
	 viewBox="0 0 1366 768" style="enable-background:new 0 0 1366 768;" xml:space="preserve">
<style type="text/css">
	.st0{fill:url(#SVGID_1_);}
	.st1{fill:none;}
	.st2{fill:url(#SVGID_2_);}
	.st3{fill:url(#SVGID_3_);}
	.st4{fill:url(#SVGID_4_);}
	.st5{fill:none;stroke:#FFFFFF;stroke-miterlimit:10;}
	.st6{fill:#CED2D8;}
	.st7{fill:url(#SVGID_5_);}
	.st8{fill:url(#SVGID_6_);}
	.st9{fill:url(#SVGID_7_);}
	.st10{opacity:0.4;fill:#383838;}
	.st11{fill:#FF57A4;}
	.st12{fill:url(#SVGID_8_);}
	.st13{fill:url(#SVGID_9_);}
	.st14{fill:url(#SVGID_10_);}
	.st15{fill:#525DEA;}
	.st16{fill:#4B28C4;}
	.st17{fill:url(#SVGID_11_);}
	.st18{fill:url(#SVGID_12_);}
	.st19{fill:url(#SVGID_13_);}
	.st20{fill:#8B3FAE;}
	.st21{fill:url(#SVGID_14_);}
	.st22{fill:url(#SVGID_15_);}
	.st23{fill:#E6E8EB;}
	.st24{fill:#3F02A8;}
	.st25{fill:#FFFFFF;}
	.st26{opacity:0.1;}
	.st27{fill:url(#SVGID_16_);}
	.st28{fill:url(#SVGID_17_);}
	.st29{fill:url(#SVGID_18_);}
	.st30{fill:#D7DADF;}
	.st31{fill:url(#SVGID_19_);}
	.st32{fill:url(#SVGID_20_);}
	.st33{fill:#A163BD;}
	.st34{fill:#9BA0B4;}
	.st35{fill:#AEB2C2;}
	.st36{fill:url(#SVGID_21_);}
	.st37{fill:url(#SVGID_22_);}
	.st38{fill:url(#SVGID_23_);}
	.st39{fill:url(#SVGID_24_);}
	.st40{fill:#6332B9;}
	.st41{fill:#383838;}
	.st42{fill:url(#SVGID_25_);}
</style>
<g id="bg">
	<linearGradient id="SVGID_1_" gradientUnits="userSpaceOnUse" x1="566.5546" y1="445.3256" x2="218.6233" y2="-124.8944">
		<stop  offset="0" style="stop-color:#FF57A4;stop-opacity:0.2"/>
		<stop  offset="1" style="stop-color:#8B3FAE;stop-opacity:0.2"/>
	</linearGradient>
	<path class="st0" d="M-1,643c82.7-130.8,233.1-68.9,336-88c169.4-31.4,83.1-173.1,330.8-175.1c203.8-1.6,261.8-73.3,195.5-245.8
		C809.1-1.4,983,0,983,0H-1V643z"/>
	<rect x="1.3" y="0.5" class="st1" width="1179.9" height="767.5"/>
</g>
<g id="point">
	<g>
		<g>
			<image style="overflow:visible;opacity:0.3;" width="53" height="53" xlink:href="6702E217.png"  transform="matrix(1 0 0 1 811 194)">
			</image>
			<g>
				<linearGradient id="SVGID_2_" gradientUnits="userSpaceOnUse" x1="838.6246" y1="226.3139" x2="828.2873" y2="209.3722">
					<stop  offset="0" style="stop-color:#525DEA"/>
					<stop  offset="1" style="stop-color:#4B28C4"/>
				</linearGradient>
				<ellipse class="st2" cx="833.8" cy="218.5" rx="10.9" ry="10.9"/>
			</g>
		</g>
		<g>
			
				<image style="overflow:visible;opacity:0.3;" width="39" height="40" xlink:href="6702E212.png"  transform="matrix(1 0 0 1 851 205)">
			</image>
			<g>
				<linearGradient id="SVGID_3_" gradientUnits="userSpaceOnUse" x1="868.3882" y1="226.156" x2="864.3543" y2="219.5448">
					<stop  offset="0" style="stop-color:#525DEA"/>
					<stop  offset="1" style="stop-color:#4B28C4"/>
				</linearGradient>
				<path class="st3" d="M866.5,227.3c-2.3,0-4.2-1.9-4.2-4.2s1.9-4.2,4.2-4.2c2.3,0,4.2,1.9,4.2,4.2S868.9,227.3,866.5,227.3z"/>
			</g>
		</g>
		<animateTransform attributeName="transform" type="rotate" from="0 833.8 218.5" to="360 833.8 218.5" begin="0s" dur="4s" repeatCount="indefinite"/>
	</g>
</g>
<g id="cogs">
	<g>
		<linearGradient id="SVGID_4_" gradientUnits="userSpaceOnUse" x1="958.8414" y1="133.9104" x2="1044.5897" y2="191.4008">
			<stop  offset="0" style="stop-color:#525DEA"/>
			<stop  offset="1" style="stop-color:#4B28C4"/>
		</linearGradient>
		<path class="st4" d="M1093,188v-24.9c0-2.7-2.2-4.9-4.8-4.9h-11.5c-2,0-3.8-1.2-4.5-3.1c-0.3-0.7-0.5-1.3-0.8-2
			c-0.8-1.9-0.4-4,1-5.4l8.1-8.3c1.9-1.9,1.9-5,0-6.9l-17.3-17.6c-1.9-1.9-4.9-1.9-6.8,0l-8.1,8.3c-1.4,1.4-3.5,1.8-5.3,1
			c-0.6-0.3-1.3-0.6-1.9-0.8c-1.8-0.7-3.1-2.5-3.1-4.6v-11.7c0-2.7-2.2-4.9-4.8-4.9h-24.4c-2.7,0-4.8,2.2-4.8,4.9v11.7
			c0,2-1.2,3.8-3.1,4.6c-0.7,0.3-1.3,0.5-1.9,0.8c-1.8,0.8-3.9,0.4-5.3-1l-8.1-8.3c-1.9-1.9-4.9-1.9-6.8,0l-17.3,17.6
			c-1.9,1.9-1.9,5,0,6.9l8.1,8.3c1.4,1.4,1.8,3.6,1,5.4c-0.3,0.7-0.5,1.3-0.8,2c-0.7,1.9-2.5,3.1-4.5,3.1h-11.5
			c-2.7,0-4.8,2.2-4.8,4.9V188c0,2.7,2.2,4.9,4.8,4.9h11.5c2,0,3.8,1.2,4.5,3.1c0.3,0.7,0.5,1.3,0.8,2c0.8,1.9,0.4,4-1,5.4l-8.1,8.3
			c-1.9,1.9-1.9,5,0,6.9l17.3,17.6c1.9,1.9,4.9,1.9,6.8,0l8.1-8.3c1.4-1.4,3.5-1.8,5.3-1c0.6,0.3,1.3,0.6,1.9,0.8
			c1.8,0.7,3.1,2.5,3.1,4.6V244c0,2.7,2.2,4.9,4.8,4.9h24.4c2.7,0,4.8-2.2,4.8-4.9v-11.7c0-2,1.2-3.8,3.1-4.6
			c0.7-0.3,1.3-0.5,1.9-0.8c1.8-0.8,3.9-0.4,5.3,1l8.1,8.3c1.9,1.9,4.9,1.9,6.8,0l17.3-17.6c1.9-1.9,1.9-5,0-6.9l-8.1-8.3
			c-1.4-1.4-1.8-3.6-1-5.4c0.3-0.7,0.5-1.3,0.8-2c0.7-1.9,2.5-3.1,4.5-3.1h11.5C1090.8,192.9,1093,190.7,1093,188z M1049.5,175.6
			c0,16.1-12.8,29.1-28.6,29.1c-15.8,0-28.6-13-28.6-29.1c0-16.1,12.8-29.1,28.6-29.1C1036.7,146.4,1049.5,159.5,1049.5,175.6z"/>
		<ellipse class="st5" cx="1022.5" cy="175.6" rx="44.8" ry="45.6"/>
		<animateTransform attributeName="transform" type="rotate" from="0 1022.5 175.6" to="360 1022.5 175.6" begin="0s" dur="4s" repeatCount="indefinite"/>
	</g>
</g>
<g id="user">
	<ellipse class="st6" cx="1123.4" cy="509.9" rx="191.6" ry="17.3">

	</ellipse>
	<g>
		<g>
			<g>
				<linearGradient id="SVGID_5_" gradientUnits="userSpaceOnUse" x1="984.7733" y1="478.0942" x2="1186.4025" y2="478.0942">
					<stop  offset="0" style="stop-color:#8B3FAE"/>
					<stop  offset="1" style="stop-color:#3F02A8"/>
				</linearGradient>
				<path class="st7" d="M1112.7,497.3v-38.5h71.1c1.4,0,2.6-1.2,2.6-2.7l0,0c0-1.5-1.2-2.7-2.6-2.7H988c-1.8,0-3.2,1.5-3.2,3.3
					v42.7c0,1.8,1.4,3.3,3.2,3.3h195.8c1.4,0,2.6-1.2,2.6-2.7l0,0c0-1.5-1.2-2.7-2.6-2.7H1112.7z"/>
				<linearGradient id="SVGID_6_" gradientUnits="userSpaceOnUse" x1="1227.5632" y1="550.0622" x2="1109.6287" y2="442.9988">
					<stop  offset="0" style="stop-color:#383838"/>
					<stop  offset="1" style="stop-color:#9BA0B4"/>
				</linearGradient>
				<rect x="1112.7" y="458.8" class="st8" width="71.1" height="38.5"/>
				<linearGradient id="SVGID_7_" gradientUnits="userSpaceOnUse" x1="1016.1542" y1="436.0653" x2="1105.7057" y2="542.252">
					<stop  offset="0" style="stop-color:#CED2D8"/>
					<stop  offset="1" style="stop-color:#9BA0B4"/>
				</linearGradient>
				<rect x="990.5" y="458.8" class="st9" width="122.3" height="38.5"/>
				<rect x="990.5" y="458.8" class="st10" width="193.4" height="3.5"/>
				<g>
					<polygon class="st10" points="1011.3,492 1004.6,485.9 997.9,492 997.9,458.8 1011.3,458.8 					"/>
					<polygon class="st11" points="1010.6,490.9 1003.7,484.4 996.8,490.9 996.8,458.8 1010.6,458.8 					"/>
					<linearGradient id="SVGID_8_" gradientUnits="userSpaceOnUse" x1="1003.7045" y1="489.4441" x2="1003.7045" y2="463.0039">
						<stop  offset="0" style="stop-color:#CED2D8"/>
						<stop  offset="1" style="stop-color:#9BA0B4"/>
					</linearGradient>
					<polygon class="st12" points="1008.6,461 1008.6,486.9 1003.7,482.2 996.8,489.2 996.8,490.9 1003.7,484.4 1010.6,490.9 
						1010.6,461 					"/>
					<rect x="996.8" y="458.8" class="st10" width="13.8" height="2.1"/>
				</g>
				<g>
					<linearGradient id="SVGID_9_" gradientUnits="userSpaceOnUse" x1="1120.0155" y1="405.4174" x2="1024.2942" y2="545.6512">
						<stop  offset="0" style="stop-color:#CED2D8"/>
						<stop  offset="1" style="stop-color:#9BA0B4"/>
					</linearGradient>
					<path class="st13" d="M984.8,456.1h201.5c-0.1-1.4-1.2-2.6-2.6-2.6H987.9C986.4,453.5,985.1,454.6,984.8,456.1z"/>
					<path class="st10" d="M1186.4,500.1H984.8c0.4,1.7,1.7,2.6,3.1,2.6h195.8C1185,502.7,1186.4,501.7,1186.4,500.1z"/>
				</g>
			</g>
			<g>
				<linearGradient id="SVGID_10_" gradientUnits="userSpaceOnUse" x1="969.7781" y1="409.286" x2="1162.3661" y2="456.4013">
					<stop  offset="0" style="stop-color:#4B28C4"/>
					<stop  offset="1" style="stop-color:#3F02A8"/>
				</linearGradient>
				<rect x="963.4" y="411" class="st14" width="200.4" height="42.6"/>
				<rect x="1130.9" y="411" class="st15" width="26.1" height="42.6"/>
				<rect x="987" y="427.2" class="st15" width="135.3" height="10.1"/>
				<path class="st16" d="M1150,432.2c0,3.4-2.7,6.2-6.1,6.2c-3.4,0-6.1-2.8-6.1-6.2c0-3.4,2.7-6.2,6.1-6.2
					C1147.3,426,1150,428.8,1150,432.2z"/>
				<linearGradient id="SVGID_11_" gradientUnits="userSpaceOnUse" x1="1063.5674" y1="413.3929" x2="1063.5674" y2="411.1272">
					<stop  offset="0" style="stop-color:#CED2D8"/>
					<stop  offset="1" style="stop-color:#9BA0B4"/>
				</linearGradient>
				<rect x="963.4" y="411" class="st17" width="200.4" height="2.6"/>
				<rect x="963.4" y="450.6" class="st10" width="200.4" height="2.9"/>
			</g>
			<g>
				<g>
					<g>
						<linearGradient id="SVGID_12_" gradientUnits="userSpaceOnUse" x1="1184.4739" y1="417.0553" x2="1111.7622" y2="351.0462">
							<stop  offset="0" style="stop-color:#CED2D8"/>
							<stop  offset="1" style="stop-color:#9BA0B4"/>
						</linearGradient>
						<rect x="1118.4" y="373.1" class="st18" width="71.1" height="32.5"/>
						<linearGradient id="SVGID_13_" gradientUnits="userSpaceOnUse" x1="1135.2985" y1="325.0793" x2="1012.6014" y2="504.8331">
							<stop  offset="0" style="stop-color:#FF57A4"/>
							<stop  offset="1" style="stop-color:#8B3FAE"/>
						</linearGradient>
						<path class="st19" d="M1189.5,373.1c1.4,0,2.6-1.2,2.6-2.7v0c0-1.5-1.2-2.7-2.6-2.7H993.7c-1.8,0-3.2,1.5-3.2,3.3v36.7
							c0,1.8,1.4,3.3,3.2,3.3h195.8c1.4,0,2.6-1.2,2.6-2.7c0-1.5-1.2-2.7-2.6-2.7h-71.1v-32.5H1189.5z"/>
					</g>
					<polygon class="st10" points="1189.5,373.1 1118.4,373.1 1118.4,405.6 1121.1,405.6 1121.1,375.8 1124.3,375.8 1124.3,399.4 
						1128.5,395.6 1128.5,375.8 1189.5,375.8 					"/>
					<g>
						<polygon class="st20" points="1127.7,394.5 1123.4,398.3 1123.4,373.1 1127.7,373.1 						"/>
						<linearGradient id="SVGID_14_" gradientUnits="userSpaceOnUse" x1="1125.5383" y1="374.295" x2="1125.5383" y2="399.0543">
							<stop  offset="0" style="stop-color:#CED2D8"/>
							<stop  offset="1" style="stop-color:#9BA0B4"/>
						</linearGradient>
						<polygon class="st21" points="1126.8,374 1126.8,393.8 1123.4,396.9 1123.4,398.3 1127.7,394.5 1127.7,374 						"/>
						<rect x="1123.4" y="373.1" class="st10" width="4.2" height="0.9"/>
					</g>

				</g>
				<g>
					<rect x="1093.3" y="367.8" class="st11" width="6.1" height="43.2"/>
					<rect x="1084.1" y="367.8" class="st11" width="6.1" height="43.2"/>

				</g>
				<linearGradient id="SVGID_15_" gradientUnits="userSpaceOnUse" x1="1125.7325" y1="319.6953" x2="1030.0112" y2="459.9292">
					<stop  offset="0" style="stop-color:#CED2D8"/>
					<stop  offset="1" style="stop-color:#9BA0B4"/>
				</linearGradient>
				<path class="st22" d="M990.5,370.4h201.5c-0.1-1.4-1.2-2.6-2.6-2.6H993.7C992.1,367.8,990.8,368.9,990.5,370.4z"/>
				<path class="st10" d="M1192.1,408.4H990.5c0.4,1.7,1.7,2.6,3.1,2.6h195.8C1190.7,411,1192.1,409.9,1192.1,408.4z"/>
			</g>

		</g>
		<animateMotion  dur="6s" keyTimes="0:1" keyPoints="0:1" path="M10 -10 L0 0 ,10 0 ,10 -10" repeatCount="indefinite"/>
		<g>
			<g>
				<rect x="1038.3" y="202.2" class="st23" width="228.6" height="150.6"/>
				<rect x="1038.3" y="202.2" class="st6" width="228.6" height="9.3"/>
				<g>
					<rect x="1064.9" y="217.4" class="st15" width="175.5" height="104.9"/>
					<g>
						<rect x="1139.1" y="259.9" class="st24" width="27.1" height="19.9"/>
						<polygon class="st25" points="1158.2,269.9 1147.1,263.4 1147.1,276.4 						"/>
					</g>
					<g>
						<rect x="1064.9" y="332.3" class="st6" width="68.3" height="5.5">
							 <animateMotion  dur="3s" keyTimes="0:1" keyPoints="0:1" path="M0 0 L100 0 L0 0" repeatCount="indefinite"/>
						</rect>
						<rect x="1064.9" y="340.6" class="st6" width="102.5" height="3.2">
							<animateMotion  dur="3s" keyTimes="0:1" keyPoints="0:1" path="M85 0 L0 0 L85 0" repeatCount="indefinite"/>
						</rect>

					</g>
					<path class="st6" d="M1220.7,335c0,1.7-1.4,3.1-3.1,3.1c-1.7,0-3.1-1.4-3.1-3.1c0-1.7,1.4-3.1,3.1-3.1
						C1219.3,331.9,1220.7,333.3,1220.7,335z"/>
					<path class="st6" d="M1229.5,335c0,1.7-1.4,3.1-3.1,3.1s-3.1-1.4-3.1-3.1c0-1.7,1.4-3.1,3.1-3.1S1229.5,333.3,1229.5,335z"/>
					<path class="st6" d="M1238.2,335c0,1.7-1.4,3.1-3.1,3.1c-1.7,0-3.1-1.4-3.1-3.1c0-1.7,1.4-3.1,3.1-3.1
						C1236.8,331.9,1238.2,333.3,1238.2,335z"/>
				</g>
				<g>
					<ellipse class="st24" cx="1044.8" cy="206.8" rx="2.8" ry="2.8"/>
					<path class="st20" d="M1054.9,206.8c0,1.6-1.2,2.8-2.8,2.8c-1.5,0-2.8-1.3-2.8-2.8c0-1.6,1.2-2.8,2.8-2.8
						C1053.6,204,1054.9,205.3,1054.9,206.8z"/>
					<ellipse class="st11" cx="1059.4" cy="206.8" rx="2.8" ry="2.8"/>
				</g>
			</g>
			<g>
				<g>
					<g class="st26">
						<path d="M1268.9,261c0,9-7.2,16.4-16.1,16.4c-8.9,0-16.1-7.3-16.1-16.4c0-9,7.2-16.4,16.1-16.4
							C1261.7,244.7,1268.9,252,1268.9,261z"/>
					</g>
					<g>
						<linearGradient id="SVGID_16_" gradientUnits="userSpaceOnUse" x1="1235.9663" y1="243.1933" x2="1271.3381" y2="278.5651">
							<stop  offset="0" style="stop-color:#FF57A4"/>
							<stop  offset="1" style="stop-color:#8B3FAE"/>
						</linearGradient>
						<path class="st27" d="M1268.9,260c0,9-7.2,16.4-16.1,16.4c-8.9,0-16.1-7.3-16.1-16.4c0-9,7.2-16.4,16.1-16.4
							C1261.7,243.7,1268.9,251,1268.9,260z"/>
					</g>
				</g>
				<g>
					<polygon class="st25" points="1263.9,258.1 1252.8,255.2 1241.7,258.1 1252.8,261 					"/>
					<path class="st25" d="M1247.4,260.7v4.1c5.4,2.5,10.8,0,10.8,0v-4.1l-5.4,1.4L1247.4,260.7z"/>
					<path class="st25" d="M1261.8,262c0-0.2-0.1-0.3-0.2-0.3v-2.4l-0.3,0.1v2.4c-0.1,0.1-0.2,0.2-0.2,0.3c0,0.1,0.1,0.3,0.2,0.3
						l-0.2,1.5c0.4,0.2,0.7,0,0.7,0l-0.2-1.5C1261.8,262.2,1261.8,262.1,1261.8,262z"/>
				</g>
			</g>
			<g>
				<g>
					<g>
						<g class="st26">
							<path d="M1268.9,297c0,9-7.2,16.4-16.1,16.4c-8.9,0-16.1-7.3-16.1-16.4s7.2-16.4,16.1-16.4
								C1261.7,280.6,1268.9,287.9,1268.9,297z"/>
						</g>
						<g>
							<linearGradient id="SVGID_17_" gradientUnits="userSpaceOnUse" x1="1235.9663" y1="279.1459" x2="1271.338" y2="314.5176">
								<stop  offset="0" style="stop-color:#FF57A4"/>
								<stop  offset="1" style="stop-color:#8B3FAE"/>
							</linearGradient>
							<path class="st28" d="M1268.9,296c0,9-7.2,16.4-16.1,16.4c-8.9,0-16.1-7.3-16.1-16.4s7.2-16.4,16.1-16.4
								C1261.7,279.6,1268.9,286.9,1268.9,296z"/>
						</g>
					</g>
				</g>
				<g>
					<path class="st25" d="M1258.2,291.4c-0.3-0.8,0-2-0.6-2.6c-0.6-0.6-1.8-0.3-2.6-0.6c-0.7-0.3-1.4-1.4-2.2-1.4
						c-0.9,0-1.5,1.1-2.2,1.4c-0.8,0.3-2,0-2.6,0.6c-0.6,0.6-0.3,1.8-0.6,2.6c-0.3,0.8-1.4,1.4-1.4,2.3c0,0.9,1.1,1.5,1.4,2.3
						c0.3,0.8,0,2,0.6,2.6c0.6,0.6,1.8,0.3,2.6,0.6c0.7,0.3,1.4,1.4,2.2,1.4c0.9,0,1.5-1.1,2.2-1.4c0.8-0.3,2,0,2.6-0.6
						c0.6-0.6,0.3-1.8,0.6-2.6c0.3-0.8,1.4-1.4,1.4-2.3C1259.6,292.9,1258.5,292.2,1258.2,291.4z M1252.8,297.8c-2.2,0-4-1.8-4-4
						s1.8-4,4-4c2.2,0,3.9,1.8,3.9,4S1255,297.8,1252.8,297.8z"/>
					<path class="st25" d="M1252.8,301.8c-0.8,0-1.4-0.8-2.1-1.3v5.6l2.1-1.7l2.1,1.7v-5.6C1254.3,301,1253.6,301.8,1252.8,301.8z"
						/>
				</g>
			</g>
			<g>
				<g>
					<g>
						<g class="st26">
							<ellipse cx="1252.8" cy="208.9" rx="29.9" ry="30.4"/>
						</g>
						<g>
							<linearGradient id="SVGID_18_" gradientUnits="userSpaceOnUse" x1="1221.5262" y1="176.6114" x2="1287.2336" y2="242.3188">
								<stop  offset="0" style="stop-color:#3F02A8"/>
								<stop  offset="1" style="stop-color:#8B3FAE"/>
							</linearGradient>
							<ellipse class="st29" cx="1252.8" cy="207.9" rx="29.9" ry="30.4"/>
						</g>
					</g>
				</g>
				<g>
					<path class="st5" d="M1263.1,199.1c0,6.6-4.6,11.9-10.3,11.9c-5.7,0-10.3-5.3-10.3-11.9s4.6-11.9,10.3-11.9
						C1258.5,187.2,1263.1,192.6,1263.1,199.1z"/>
					<path class="st5" d="M1272.7,222.5c0-4.8-4.1-7-10.2-9.2c-2.5,2.7-5.9,2.4-9.6,2.4c-3.7,0-7.1,0.3-9.6-2.4
						c-6.1,2.2-10.2,4.4-10.2,9.2"/>
				</g>
			</g>
		</g>
		<g>
			<path class="st30" d="M1017.7,321.6c0,0,2.6,8.5,0.8,14.4c-1.8,5.8-4,9.3-4,9.3l1.3,0.6c0,0,8.5-5.2,10.5-11.2c2-6,0-14.4,0-14.4
				L1017.7,321.6z"/>
			<path class="st11" d="M1018.2,262.8c-5.7,3.1-1.9,7.7-6.5,14.5c-2,2.9-1.7,6.3,0.8,8.9c4.2,4.5-0.3,5.2,1.2,9.5
				c1.5,4.5,12.5,3.9,14.8-1.4C1031,288.2,1025.2,259.1,1018.2,262.8z"/>
			<linearGradient id="SVGID_19_" gradientUnits="userSpaceOnUse" x1="987.2231" y1="351.9279" x2="1038.8293" y2="395.0579">
				<stop  offset="0" style="stop-color:#4B28C4"/>
				<stop  offset="1" style="stop-color:#3F02A8"/>
			</linearGradient>
			<path class="st31" d="M1024.9,346.3c-18,6.6-25.6,18.8-24.7,32c1,13.3,5.2,29.8,4.4,33.9c0,0-6.3,9.9-4.3,11.6s10.1-12.3,11-15.5
				c2-6.9-2.9-29.6,2-34.8c4.9-5.2,26.5-21,46.4-22.1C1059.7,351.5,1044.9,339,1024.9,346.3z"/>
			<path class="st10" d="M1011.4,394.1c-0.5-8.4-1-17.4,1.9-20.5c4.9-5.2,26.5-21,46.4-22.1c0,0-14.8-12.4-34.8-5.2
				c-7.1,2.6-12.9,6.4-17.3,10.9C999.1,366.2,1010.6,378.6,1011.4,394.1L1011.4,394.1z"/>
			<linearGradient id="SVGID_20_" gradientUnits="userSpaceOnUse" x1="993.5465" y1="343.9461" x2="1045.114" y2="387.0437">
				<stop  offset="0" style="stop-color:#4B28C4"/>
				<stop  offset="1" style="stop-color:#3F02A8"/>
			</linearGradient>
			<path class="st32" d="M1059.7,351.5c0,17.6-9,16.3-24.3,16.3c-15.2,0-7.8,29.9,0,37.8c0,0,4.7,5.5-1.7,17
				c-6.4,11.5-2.2-11.7-2.2-11.7s-20.9-21.1-21-40.6c-0.1-19.5,24.9-25.2,24.9-25.2S1059.7,340.1,1059.7,351.5z"/>
			<path class="st33" d="M1025.4,294.9c-11.7,3.9-10.9,19-9.4,26.4c0,0,6.3,2.3,10.8-4C1030.3,312.4,1028.5,293.9,1025.4,294.9z"/>
			<path class="st33" d="M1025.4,294.9c-5.6,3.3-8.4,15.8-0.5,30.8c5.9,11.1,0,20.7,0,20.7s14.4-4.9,34.8,5.2c0-8-0.7-20.2-3.7-31.5
				c-2.2-8.5-5.7-16.6-11.2-22.3c-3.3-3.4-7.6-5.4-12.6-4.2L1025.4,294.9z"/>
			<path class="st30" d="M1023.2,283.2c0,0,2.7,4.6,2.2,11.8c0,0-1.1,1.9,0.5,3.7c0.7,0.1,1.6-2.1,4.3-2.6
				c5.3-1.1,0.6-15.3,0.6-15.3L1023.2,283.2z"/>
			<path class="st30" d="M1014.5,272.7c-0.5,4.5,1.9,12.9,4.7,15.3c5.4,4.5,11.1-2.8,12.3-8.2c0,0,2.8,1.8,3.8-4.1
				c0.6-3.3-0.8-4.2-1.9-4c-0.9,0.2-1.5,1.1-1.5,1.1s-2-7.8-8.3-5.6C1017.2,269.5,1015.8,261.8,1014.5,272.7z"/>
			<path class="st11" d="M1020.1,263c-0.3,0-8.9,1.3-7.4,11.3c0,0,5.5,3,15.5,0C1028.2,274.3,1028.5,263.2,1020.1,263z"/>
			<g>
				<polygon class="st34" points="1020.3,343.5 1052.7,343.3 1030.7,352.9 998.3,353.1 				"/>
				<g>
					<polygon class="st35" points="1030.7,352.9 998.2,352.9 982.4,330.3 984.1,329.3 1015.6,329.3 					"/>
					<polygon class="st30" points="1029.3,352.9 998.3,352.9 982.4,330.3 1014.9,330.3 					"/>
					<rect x="998.3" y="352.9" class="st35" width="32.4" height="3.1"/>
				</g>
				<polygon class="st35" points="1030.7,356 1052.7,345.7 1052.7,343.3 1030.7,352.9 				"/>
			</g>
			<path class="st30" d="M1040.9,295.6c-5.3,1.1-4.1,9.3,3.9,16.8c8,7.5,10.3,14,4,21.2c-3.3,3.8-18.4,9.6-19,13.5
				c0,0-0.8,2.9,5.3,0c6.1-2.9,4.3-5,6.6-5.4c4-0.5,16.3-7,18-12.3C1062.9,318.8,1050.6,293.5,1040.9,295.6z"/>
			<path class="st33" d="M1040.3,294.5c-8,2.9-1.6,15,7.2,22.8c0,0,5.4,1.2,10-6.1C1057.5,311.1,1049.1,291.3,1040.3,294.5z"/>
			<path class="st11" d="M1027.3,270.4c1.9,1.3,1.6,3.4,1.6,7.1s1.6,3.7,2.2,7.3c0.7,3.7-6.1,7.9-1.6,12.6
				c4.6,4.7,16.4,0.4,15.1-6.9c-0.8-4.8-5.5-4.7-3.6-9.9c2.3-6.5-1.8-6.2-4.1-9c-1.3-1.5-3.3-7.6-6.8-9.5
				c-4.1-2.2-10.3-2.1-14.9,3.2L1027.3,270.4z"/>
		</g>
		<g>
			<linearGradient id="SVGID_21_" gradientUnits="userSpaceOnUse" x1="966.3946" y1="231.3631" x2="1002.6882" y2="277.4862">
				<stop  offset="0" style="stop-color:#3F02A8"/>
				<stop  offset="1" style="stop-color:#8B3FAE"/>
			</linearGradient>
			<path class="st36" d="M1000.3,243.9c-7.4-7.5-19.3-7.5-26.7,0c-7.4,7.5-7.4,19.7,0,27.2c6.4,6.5,16.1,7.4,23.4,2.6l6.9,1.1l-1-7
				C1007.6,260.4,1006.7,250.4,1000.3,243.9z"/>
		</g>
		<g>
			<g>
				<path class="st30" d="M1194.2,451.7c0,0,3.3,15.4,2.6,18.5c-0.7,3.1-7.3,6.6-7.3,6.6s-3.7,0-5.8,2.2c-3.5,3.5,6.1,5.4,6.1,5.4
					s16.3-7.4,17.8-15.1c1.4-7.7-3.1-18.9-3.1-18.9L1194.2,451.7z"/>
				<path class="st15" d="M1221.2,419.3c-15.2,2.1-30.6,14.2-27,32.4h12.3L1221.2,419.3z"/>
			</g>
			<g>
				<path class="st30" d="M1256,451.7c0,0-3.3,15.4-2.6,18.5c0.7,3.1,7.3,6.6,7.3,6.6s3.7,0,5.8,2.2c3.5,3.5-6.1,5.4-6.1,5.4
					s-16.3-7.4-17.8-15.1c-1.4-7.7,3.1-18.9,3.1-18.9L1256,451.7z"/>
				<path class="st15" d="M1229,419.3c15.2,2.1,30.6,14.2,27,32.4h-12.3L1229,419.3z"/>
			</g>
			<g>
				<linearGradient id="SVGID_22_" gradientUnits="userSpaceOnUse" x1="1161.6263" y1="498.2033" x2="1253.1967" y2="498.2033">
					<stop  offset="0" style="stop-color:#525DEA"/>
					<stop  offset="1" style="stop-color:#4B28C4"/>
				</linearGradient>
				<path class="st37" d="M1240.9,492.9c2.9,4.2,26.8-17.5,40.7-14.2c0,0,3.3,39.5-56.2,39.5s-56.2-39.5-56.2-39.5
					c14-3.3,37.8,18.4,40.7,14.2H1240.9z"/>
				<path class="st10" d="M1222.6,507.1c-3-0.9-6.5-2.4-10.1-4.8c-6.4-4.3-16.7-14-27.1-18.7l36.2,30.2c1.7-0.5,13-0.4,18.1-1.9
					c13.3-3.9,30.8-31,30.8-31C1260.5,484.4,1238.2,503.6,1222.6,507.1z"/>
				<linearGradient id="SVGID_23_" gradientUnits="userSpaceOnUse" x1="1161.6263" y1="498.3038" x2="1253.1968" y2="498.3038">
					<stop  offset="0" style="stop-color:#525DEA"/>
					<stop  offset="1" style="stop-color:#4B28C4"/>
				</linearGradient>
				<path class="st38" d="M1204.1,498.3c3.9,3.6,26.2,21.9,38.1,15.5c11.9-6.4,26.5,4.3,21,4.3c-5.5,0-22,0-22,0
					c-84,2.7-86-36.2-72-39.4C1169.2,478.6,1179.1,474.8,1204.1,498.3z"/>
				<path class="st10" d="M1221.7,510.6c-6.1,2.2-14.1,2.1-19.2,1.2c0,0,2.3,4.9,16.8,4.9c2.6,0,5.9-1.2,9.6-3
					C1226.1,512.7,1224.5,512,1221.7,510.6z"/>
				<linearGradient id="SVGID_24_" gradientUnits="userSpaceOnUse" x1="1286.0959" y1="498.3038" x2="1177.2377" y2="498.3038">
					<stop  offset="0" style="stop-color:#525DEA"/>
					<stop  offset="1" style="stop-color:#4B28C4"/>
				</linearGradient>
				<path class="st39" d="M1246.7,498.3c-3.9,3.6-26.2,21.9-38.1,15.5c-11.9-6.4-26.5,4.3-21,4.3c5.5,0,22,0,22,0
					c84,2.7,86-36.2,72-39.4C1281.6,478.6,1271.7,474.8,1246.7,498.3z"/>
			</g>
			<path class="st15" d="M1225.4,497.2c12.8,0,15.5-4.3,15.5-4.3s-1.2-10.5,5.2-35.9c6.4-25.4-7-38-20.7-38
				c-13.7,0-27.1,12.6-20.7,38c6.4,25.4,5.2,35.9,5.2,35.9S1212.6,497.2,1225.4,497.2z"/>
			<path class="st40" d="M1241.2,401.4l-15.8-9.4l-15.5,9.6c5.7,2.1-1.1,6.8,3.5,10.7c1.9,1.6,3.5,0.8,5.4,0.8
				c1.8,0,2.8,2.1,6.6,2.1c3,0,4.4-2.7,6.6-2.1c1.8,0.5,3.5,0.8,5.4-0.8C1242,408.4,1235.2,404.5,1241.2,401.4z"/>
			<path class="st30" d="M1230.1,412.7c-1.4,5.7-0.5,10.7-0.5,10.7s-0.5,2.2-4.5,2c-4,0-4.4-2.2-4.4-2.2s1.2-5.2,0-10.7
				L1230.1,412.7z"/>
			<g>
				<path class="st30" d="M1218.5,404.7c0.7,2.2,0.1,4.4-1.4,4.7c-1.4,0.4-3.1-1.1-3.8-3.4s-0.1-4.4,1.4-4.7
					C1216.2,401,1217.9,402.5,1218.5,404.7z"/>
				<path class="st30" d="M1232.3,404.7c-0.7,2.2-0.1,4.4,1.4,4.7c1.4,0.4,3.1-1.1,3.8-3.4s0.1-4.4-1.4-4.7
					C1234.6,401,1232.9,402.5,1232.3,404.7z"/>
				<ellipse class="st30" cx="1225.4" cy="402.1" rx="10.5" ry="13.1"/>
				<path class="st40" d="M1225.4,379c5.2,0,4.9,5,10.5,4c3.3-0.6,6.7,3.9,4.8,7.6c-3.4,6.9,2.9,3.9,2.6,8.3
					c-0.3,4.4-5.9,3.9-5.9,3.9c-0.2-1-1.4-1.4-1.4-1.4l-0.8,5.2c0,0-1.7-0.3-1.9-1.7c-0.2-1.3,0.7-3.9,0.9-5c0.3-1.7-1.7-0.8-3.3-1
					c-2.8-0.4-4.7-2.9-7.6-1.8c-6,2.3-6.6,0.9-6.9,2.8c-0.1,1.1,1.2,3.7,0.9,5c-0.2,1.3-1.9,1.7-1.9,1.7l-0.8-5.2
					c0,0-1.2,0.5-1.4,1.4c0,0-5.7,0.5-5.9-3.9c-0.3-4.4,6.1-2.3,2.1-8.9c-1.9-3,0-8.4,5.4-6.2C1220.1,386,1220.2,379,1225.4,379z"/>
			</g>
			<g>
				<path class="st41" d="M1232,502.2c0,0.9-2.9,1.7-6.5,1.7c-3.6,0-6.5-0.8-6.5-1.7s2.9-1.7,6.5-1.7
					C1229,500.5,1232,501.3,1232,502.2z"/>
				<path class="st20" d="M1225.4,505c5.7,0,6.2-1.3,6.2-1.3l36.7-21.7v-1.8l-36.7,21.7c0,0-0.5,1.3-6.2,1.3c-5.7,0-6.2-1.3-6.2-1.3
					l-36.7-21.7v1.8l36.7,21.7C1219.2,503.7,1219.7,505,1225.4,505z"/>
				<g>
					<path class="st34" d="M1183.4,480.7l5.1-3.1c0,0,36.9,5.5,36.9,18.8v4.3c0,0-4.4,0.3-6.2,1.1L1183.4,480.7z"/>
					<path class="st6" d="M1188.5,477.6l-5.1,3.1l35.8,21.2c1.7-0.8,6.2-1.1,6.2-1.1C1225.2,487.7,1188.5,477.6,1188.5,477.6z"/>
				</g>
				<g>
					<path class="st34" d="M1267.4,480.7l-5.1-3.1c0,0-36.9,5.5-36.9,18.8v4.3c0,0,4.4,0.3,6.2,1.1L1267.4,480.7z"/>
					<path class="st6" d="M1262.3,477.6l5.1,3.1l-35.8,21.2c-1.7-0.8-6.2-1.1-6.2-1.1C1225.6,487.7,1262.3,477.6,1262.3,477.6z"/>
				</g>
			</g>
		</g>
		<g>
			<g>
				
					<linearGradient id="SVGID_25_" gradientUnits="userSpaceOnUse" x1="1094.7837" y1="64.5389" x2="1131.3525" y2="111.0118" gradientTransform="matrix(0.7071 0.7071 -0.7071 0.7071 500.8898 -504.2174)">
					<stop  offset="0" style="stop-color:#3F02A8"/>
					<stop  offset="1" style="stop-color:#8B3FAE"/>
				</linearGradient>
				<path class="st42" d="M1244.3,348.8c0-10.6-8.4-19.2-18.9-19.2s-18.9,8.6-18.9,19.2c0,9.2,6.3,16.8,14.7,18.7l4.1,5.7l4.1-5.7
					C1238,365.7,1244.3,358,1244.3,348.8z"/>
			</g>
			<g>
				<path class="st25" d="M1231.3,345.4c0-3.7-3.2-6.5-6.9-5.9c-2.4,0.4-4.3,2.4-4.7,4.9c-0.3,2,0.4,3.9,1.6,5.2
					c1,1,1.5,2.3,1.5,3.6v0.5c0,0.7,0.6,1.3,1.3,1.3h2.7c0.7,0,1.3-0.6,1.3-1.3v-0.5c0-1.3,0.5-2.6,1.4-3.5
					C1230.6,348.6,1231.3,347.1,1231.3,345.4z"/>
				<path class="st25" d="M1227.5,355.7h-4.2c-0.3,0-0.6,0.3-0.6,0.6s0.3,0.6,0.6,0.6h4.2c0.3,0,0.6-0.3,0.6-0.6
					S1227.9,355.7,1227.5,355.7z"/>
				<path class="st25" d="M1227.2,357.8h-3.7c-0.3,0-0.6,0.3-0.6,0.6s0.2,0.6,0.6,0.6h3.7c0.3,0,0.6-0.3,0.6-0.6
					S1227.6,357.8,1227.2,357.8z"/>
			</g>
		</g>

	</g>
</g>
</svg>
